{"title":"The Twilight Saga Eclipse DVDSCR XViD - IMAGiNE","uid":5776780,"size":1472684463,"categoryP":"video","categoryS":"movies","magnet":"?xt=urn:btih:f80c5bb3d73019e090105454c766b8bd7d861b78&amp;dn=The+Twilight+Saga+Eclipse+DVDSCR+XViD+-+IMAGiNE&amp;tr=udp%3A%2F%2Ftracker.openbittorrent.com%3A80&amp;tr=udp%3A%2F%2Fopen.demonii.com%3A1337&amp;tr=udp%3A%2F%2Ftracker.coppersurfer.tk%3A6969&amp;tr=udp%3A%2F%2Fexodus.desync.com%3A6969","seeders":0,"leechers":0,"uploader":"hiest","files":-1,"time":1282292292,"description":"*********** **** **** *** ******** *********** **** *** **********\n*+* +*+*+* *+*+*+ *+* *+* *+* *+* *+* *+*+* *+* *+* \n+*+ +*+ +*+*+ +*+ +*+ +*+ +*+ +*+ *+*+*+ +*+ +*+ \n+$+ +$+ +*+ +$+ +$++*++$++* *$* +$+ +$+ +*+ +$+ +$++*++$ \n+$+ +$+ +$+ +$+ +$+ +$+ +$+$ +$+ +$+ +$+$+$ +$+ \n$+$ $+$ $+$ $+$ $+$ $+$ $+$ $+$ $+$ $+$+$ $+$ \n$$$$$$$$$$$ $$$ $$$ $$$ $$$ $$$$$$$$ $$$$$$$$$$$ $$$ $$$$ $$$$$$$$$$ \n\n\n\n\nAnother Fine Release Brought to you from - IMAGiNE \n\n\n******************************************************************************************************************** \nThe Twilight Saga Eclipse DVDSCR XViD - IMAGiNE\n********************************************************************************************************************\n\nRipper ...........:IMAGiNE IMDB Rating.......:4.8/10 \nVideo Codec.......:XVID Release Date......:19/08/10\nAudio Codec.......:AC-3 Theatre Date......:30/06/10\nAudio Bitrate.....:192 Runtime...........:1h 53mn\nSubtitles.........:NIL Language..........:ENGLISH\nResolution........:720 x 288 IMDb URL..........:http://www.imdb.com/title/tt1325004/\n\n\nDETAILS:\n\nVideo\nID : 0\nFormat : MPEG-4 Visual\nFormat profile : Advanced Simple@L5\nFormat settings, BVOP : Yes\nFormat settings, QPel : No\nFormat settings, GMC : No warppoints\nFormat settings, Matrix : Default (MPEG)\nMuxing mode : Packed bitstream\nCodec ID : XVID\nCodec ID/Hint : XviD\nDuration : 1h 53mn\nBit rate : 1 527 Kbps\nWidth : 720 pixels\nHeight : 288 pixels\nDisplay aspect ratio : 2.500\nFrame rate : 23.976 fps\nColor space : YUV\nChroma subsampling : 4:2:0\nBit depth : 8 bits\nScan type : Progressive\nBits/(Pixel*Frame) : 0.307\nStream size : 1.21 GiB (88%)\nWriting library : XviD 1.2.1 (UTC 2008-12-04)\n\nAudio\nID : 1\nFormat : AC-3\nFormat/Info : Audio Coding 3\nMode extension : CM (complete main)\nCodec ID : 2000\nDuration : 1h 53mn\nBit rate mode : Constant\nBit rate : 192 Kbps\nChannel(s) : 2 channels\nChannel positions : Front: L R\nSampling rate : 48.0 KHz\nBit depth : 16 bits\nStream size : 156 MiB (11%)\nAlignment : Aligned on interleaves\nInterleave, duration : 42 ms (1.00 video frame)\nInterleave, preload duration : 512 ms\n\n\nNOTES:\n\nIMAGiNE bringing you another release.....The Twilight Saga Eclipse\n\nWell here we are with a nice DVD Screener of Twilight Eclipse. Now we had the xvid that was released onto demon yesterday, but before that was even finished downloading we we're sent the \noriginal dvd vob's by a good mate... Cheers mate you know who you are... \nOn to the video, its a very nice scr so we just needed to do a few touch up's on it. First \nwe cropped of the timer and watermark that was on the bottom which was not much at all so \nnothing will be missed, then it was just a matter of a few rgb color changes and a few other \nsmall things. The audio is very nice AC-3 audio for a nice crisp sound. All together this is a\nnice release.\n\nEnjoy...\n\n\n\n\n\n &lt;a href=&quot;\nhttp://thepiratebay.se/user/hiest&quot; rel=&quot;nofollow&quot; target=&quot;_NEW&quot;&gt;\nhttp://thepiratebay.se/user/hiest&lt;/a&gt;\n\n\n\n\n\n\n\n\nScreenshots:\n &lt;a href=&quot;\nhttp://img580.imageshack.us/img580/771/84566432.png&quot; rel=&quot;nofollow&quot; target=&quot;_NEW&quot;&gt;\nhttp://img580.imageshack.us/img580/771/84566432.png&lt;/a&gt;\n &lt;a href=&quot;\nhttp://img689.imageshack.us/img689/4613/70834153e.png&quot; rel=&quot;nofollow&quot; target=&quot;_NEW&quot;&gt;\nhttp://img689.imageshack.us/img689/4613/70834153e.png&lt;/a&gt;\n &lt;a href=&quot;\nhttp://img8.imageshack.us/img8/2096/86217483.png&quot; rel=&quot;nofollow&quot; target=&quot;_NEW&quot;&gt;\nhttp://img8.imageshack.us/img8/2096/86217483.png&lt;/a&gt;\n &lt;a href=&quot;\nhttp://img508.imageshack.us/img508/2457/36702059.png&quot; rel=&quot;nofollow&quot; target=&quot;_NEW&quot;&gt;\nhttp://img508.imageshack.us/img508/2457/36702059.png&lt;/a&gt;\n &lt;a href=&quot;\nhttp://img16.imageshack.us/img16/165/47198455.png&quot; rel=&quot;nofollow&quot; target=&quot;_NEW&quot;&gt;\nhttp://img16.imageshack.us/img16/165/47198455.png&lt;/a&gt;","torrent":{"xt":"urn:btih:f80c5bb3d73019e090105454c766b8bd7d861b78","amp;dn":"The+Twilight+Saga+Eclipse+DVDSCR+XViD+-+IMAGiNE","amp;tr":["udp%3A%2F%2Ftracker.openbittorrent.com%3A80","udp%3A%2F%2Fopen.demonii.com%3A1337","udp%3A%2F%2Ftracker.coppersurfer.tk%3A6969","udp%3A%2F%2Fexodus.desync.com%3A6969"],"infoHash":"f80c5bb3d73019e090105454c766b8bd7d861b78","infoHashBuffer":{"type":"Buffer","data":[248,12,91,179,215,48,25,224,144,16,84,84,199,102,184,189,125,134,27,120]},"announce":[],"urlList":[]}}